HIERARCHY
ROOT Hips
{
	OFFSET 0.000000 0.000000 0.000000
	CHANNELS 6 Xposition Yposition Zposition Zrotation Yrotation Xrotation 
	JOINT LeftUpLeg_virtual
	{
		OFFSET 0.000000 0.000000 0.000000
		CHANNELS 3 Zrotation Yrotation Xrotation
		JOINT LeftUpLeg
		{
			OFFSET 10.205400 -3.823500 0.155100
			CHANNELS 3 Zrotation Yrotation Xrotation
			JOINT LeftLeg
			{
				OFFSET 0.708757 -12.982077 0.567790
				CHANNELS 3 Zrotation Yrotation Xrotation
				JOINT LeftFoot
				{
					OFFSET -0.708756 -10.717838 -2.184338
					CHANNELS 3 Zrotation Yrotation Xrotation
					JOINT LeftToeBase
					{
						OFFSET 0.108149 -7.191104 7.560241
						CHANNELS 3 Zrotation Yrotation Xrotation
						End Site
						{
							OFFSET 0.000000 0.000000 0.000000
						}
					}
				}
			}
		}
	}
	JOINT RightUpLeg_virtual
	{
		OFFSET 0.000000 0.000000 0.000000
		CHANNELS 3 Zrotation Yrotation Xrotation
		JOINT RightUpLeg
		{
			OFFSET -10.205400 -3.823500 0.005500
			CHANNELS 3 Zrotation Yrotation Xrotation
			JOINT RightLeg
			{
				OFFSET -0.708756 -12.982134 0.610632
				CHANNELS 3 Zrotation Yrotation Xrotation
				JOINT RightFoot
				{
					OFFSET 0.708754 -10.717769 -1.945823
					CHANNELS 3 Zrotation Yrotation Xrotation
					JOINT RightToeBase
					{
						OFFSET -0.108140 -7.191069 7.372968
						CHANNELS 3 Zrotation Yrotation Xrotation
						End Site
						{
							OFFSET 0.000000 0.000000 0.000000
						}
					}
				}
			}
		}
	}
	JOINT Spine_virtual
	{
		OFFSET 0.000000 0.000000 0.000000
		CHANNELS 3 Zrotation Yrotation Xrotation
		JOINT Spine
		{
			OFFSET 0.000000 6.876099 0.125700
			CHANNELS 3 Zrotation Yrotation Xrotation
			JOINT Spine1
			{
				OFFSET 0.000000 8.022060 0.146608
				CHANNELS 3 Zrotation Yrotation Xrotation
				JOINT Spine2
				{
					OFFSET 0.000000 9.168068 0.167552
					CHANNELS 3 Zrotation Yrotation Xrotation
					JOINT Neck_virtual
					{
						OFFSET 0.000000 0.000000 0.000000
						CHANNELS 3 Zrotation Yrotation Xrotation
						JOINT Neck
						{
							OFFSET 0.000000 10.314075 0.188496
							CHANNELS 3 Zrotation Yrotation Xrotation
							JOINT Head
							{
								OFFSET 0.000000 7.643700 -2.377400
								CHANNELS 3 Zrotation Yrotation Xrotation
								End Site
								{
									OFFSET 0.000000 0.000000 0.000000
								}
							}
						}
					}
					JOINT LeftShoulder_virtual
					{
						OFFSET 0.000000 0.000000 0.000000
						CHANNELS 3 Zrotation Yrotation Xrotation
						JOINT LeftShoulder
						{
							OFFSET 4.392200 8.824978 0.174984
							CHANNELS 3 Zrotation Yrotation Xrotation
							JOINT LeftArm
							{
								OFFSET 8.771219 -2.981674 -0.026999
								CHANNELS 3 Zrotation Yrotation Xrotation
								JOINT LeftForeArm
								{
									OFFSET 8.512804 0.000000 -0.000000
									CHANNELS 3 Zrotation Yrotation Xrotation
									JOINT LeftHand
									{
										OFFSET 18.484802 0.000000 -0.000000
										CHANNELS 3 Zrotation Yrotation Xrotation
										End Site
										{
											OFFSET 0.000000 0.000000 0.000000
										}
									}
								}
							}
						}
					}
					JOINT RightShoulder_virtual
					{
						OFFSET 0.000000 0.000000 0.000000
						CHANNELS 3 Zrotation Yrotation Xrotation
						JOINT RightShoulder
						{
							OFFSET -4.392200 8.824993 0.141379
							CHANNELS 3 Zrotation Yrotation Xrotation
							JOINT RightArm
							{
								OFFSET -8.771282 -2.981682 -0.094208
								CHANNELS 3 Zrotation Yrotation Xrotation
								JOINT RightForeArm
								{
									OFFSET -8.494598 0.000000 0.000000
									CHANNELS 3 Zrotation Yrotation Xrotation
									JOINT RightHand
									{
										OFFSET -18.483803 0.000000 0.000001
										CHANNELS 3 Zrotation Yrotation Xrotation
										End Site
										{
											OFFSET 0.000000 0.000000 0.000000
										}
									}
								}
							}
						}
					}
				}
			}
		}
	}
}
MOTION
Frames: 7
Frame Time: 0.033333
7.595326 36.764175 -2.612761 -179.944107 -8.665211 179.889356 -3.920822 -7.831999 11.089471 2.257011 3.864116 -16.160098 3.714303 4.459583 15.516974 -6.365055 -4.340273 9.171984 0.000000 0.000000 0.000000 2.504391 -9.840918 9.797467 4.675264 -11.978061 -9.252274 -6.792409 4.067716 8.095113 7.576039 5.885264 14.260333 0.000000 0.000000 0.000000 -0.477001 -4.709135 -0.474209 3.043950 7.495554 -13.836540 -0.963529 -1.237263 12.676980 -0.014846 -0.068837 -0.089633 -0.959403 0.483521 10.970745 1.188430 -5.510414 19.638508 0.000000 0.000000 0.000000 1.043310 0.823891 7.719758 2.974475 -7.291558 3.695178 -58.341038 20.201726 -0.054066 -176.305706 -86.720392 -166.100488 0.000000 0.000000 0.000000 -3.449315 2.375921 6.560725 23.000940 11.612101 5.541777 33.296721 26.533796 3.263892 -136.294772 83.276139 -138.135030 0.000000 0.000000 0.000000 
7.566183 36.746422 -2.675947 -179.952576 -9.274228 179.901828 -3.888660 -8.081506 11.022867 2.222649 3.511031 -16.176494 3.610499 4.471867 15.697667 -6.257396 -4.381840 9.075020 0.000000 0.000000 0.000000 2.570574 -9.994800 9.820916 4.422783 -11.863248 -9.084833 -6.641053 4.364118 8.281507 7.334209 5.813335 13.830050 0.000000 0.000000 0.000000 -0.558897 -4.911035 -0.615088 2.789105 7.697644 -14.054936 -1.067136 -1.132600 12.881669 0.006881 -0.069923 -0.042139 -1.115050 0.616447 11.092692 -0.731687 -4.001988 20.497683 0.000000 0.000000 0.000000 0.896617 0.891285 7.818682 4.121734 -6.689389 3.618875 -57.531455 20.482489 -3.225399 -174.401531 -85.864828 -168.496409 0.000000 0.000000 0.000000 -3.557642 2.403553 6.610496 23.906716 12.195709 6.047240 34.207346 26.743558 5.299779 -155.833607 79.696471 -158.446332 0.000000 0.000000 0.000000 
7.522010 36.716640 -2.692108 -179.945323 -10.169439 179.912059 -3.782972 -8.500695 10.985757 2.105496 3.060618 -16.353621 3.519686 4.413306 15.842434 -6.106420 -4.394298 9.061977 0.000000 0.000000 0.000000 2.649794 -10.241192 9.839494 4.204042 -11.935908 -9.045443 -6.486474 4.507214 8.535323 7.101575 5.759165 13.289804 0.000000 0.000000 0.000000 -0.568653 -5.280301 -0.690095 2.542618 8.016475 -14.119202 -1.165750 -0.986372 12.890627 0.013065 -0.076286 0.011763 -1.177989 0.648490 11.413254 -2.147068 -2.637378 21.492990 0.000000 0.000000 0.000000 0.795168 0.978992 8.011910 4.867084 -6.137627 3.650575 -56.984337 20.860991 -6.078579 -173.377631 -85.256532 -170.037628 0.000000 0.000000 0.000000 -3.671219 2.542729 6.766841 24.736261 12.709740 6.408065 35.330099 27.006407 7.427743 -162.928521 76.504361 -166.207326 0.000000 0.000000 0.000000 
7.473302 36.688259 -2.659480 -179.911185 -11.395099 179.903781 -3.664717 -8.981259 10.976939 2.012166 2.610861 -16.653883 3.413429 4.210757 15.898872 -5.994734 -4.419366 9.223322 0.000000 0.000000 0.000000 2.782997 -10.591082 9.942254 3.985599 -12.149849 -8.984199 -6.340853 4.503301 8.740199 6.883381 5.734798 12.710654 0.000000 0.000000 0.000000 -0.525954 -5.688715 -0.682282 2.292956 8.389366 -14.295943 -1.257174 -0.836291 13.192629 0.045610 -0.113410 -0.024049 -1.251977 0.812687 11.644033 -3.084806 -1.453426 22.449561 0.000000 0.000000 0.000000 0.707529 1.172056 8.223808 5.257835 -5.884644 3.694887 -57.123618 21.341044 -8.731105 -171.102017 -84.934611 -172.869356 0.000000 0.000000 0.000000 -3.831960 2.642985 7.018981 25.370014 13.217991 6.758266 36.486338 27.068864 9.531222 -166.196630 74.423442 -169.978560 0.000000 0.000000 0.000000 
7.433808 36.665836 -2.587891 -179.931170 -12.759520 179.857568 -3.619776 -9.409901 10.978607 1.930960 2.163452 -17.052267 3.315222 3.974174 15.799746 -5.907846 -4.398993 9.456545 0.000000 0.000000 0.000000 2.897312 -10.921153 9.987603 3.743546 -12.483148 -8.927614 -6.172329 4.344303 8.995193 6.694598 5.731153 12.120849 0.000000 0.000000 0.000000 -0.508765 -6.041707 -0.608978 2.065564 8.819807 -14.375433 -1.313538 -0.682383 13.629824 0.006816 -0.106631 -0.057546 -1.278269 0.961734 11.830479 -3.724038 -0.621532 23.264686 0.000000 0.000000 0.000000 0.546340 1.334092 8.358171 5.308446 -5.860537 4.001565 -57.422343 21.827700 -10.693728 -170.619642 -84.890939 -173.941094 0.000000 0.000000 0.000000 -3.868394 2.844779 7.120246 25.827640 13.744196 7.368879 37.473700 26.932189 11.777754 -167.321125 73.442429 -171.399813 0.000000 0.000000 0.000000 
7.404230 36.642033 -2.472683 -179.919928 -14.250882 179.784376 -3.533787 -9.812341 10.951418 1.892722 1.701796 -17.455978 3.198322 3.710738 15.616778 -5.873122 -4.328604 9.741421 0.000000 0.000000 0.000000 3.054649 -11.397106 9.960529 3.530852 -12.929131 -8.918608 -5.986501 4.078194 9.463702 6.567648 5.757622 11.540640 0.000000 0.000000 0.000000 -0.512605 -6.492570 -0.478146 1.877375 9.274350 -14.219388 -1.303471 -0.488641 13.823999 0.075053 -0.090589 -0.024126 -1.424984 1.180376 12.118976 -4.045537 0.129628 24.129072 0.000000 0.000000 0.000000 0.398781 1.506294 8.672710 5.090324 -6.067202 4.106029 -57.966934 22.283222 -12.040210 -167.503614 -84.987607 -177.675336 0.000000 0.000000 0.000000 -4.006142 2.987120 7.461118 26.176049 14.417390 7.794801 38.679191 26.462588 14.197430 -167.757383 73.848340 -171.755461 0.000000 0.000000 0.000000 
7.394903 36.611069 -2.315501 -179.922824 -15.911588 179.711033 -3.504803 -10.263885 10.859485 1.918610 1.195395 -17.874656 3.053197 3.396144 15.402884 -5.912988 -4.215501 10.098791 0.000000 0.000000 0.000000 3.162085 -12.029939 9.850621 3.349477 -13.447655 -8.921255 -5.773602 3.527222 10.018044 6.543860 5.850652 10.959356 0.000000 0.000000 0.000000 -0.508348 -6.856217 -0.335321 1.561629 9.700790 -14.002218 -1.259753 -0.340234 14.199857 0.025313 -0.078931 -0.062711 -1.171936 1.269434 12.423701 -4.103482 0.580961 24.773012 0.000000 0.000000 0.000000 0.383839 1.566822 8.871751 4.624271 -6.624678 4.438134 -58.325895 22.385212 -12.852149 -163.708925 -84.960942 177.894831 0.000000 0.000000 0.000000 -3.946993 3.116301 7.764714 26.472017 15.132557 8.333772 39.810311 26.019237 16.759558 -166.579503 75.307439 -170.227807 0.000000 0.000000 0.000000 
